<svg xmlns="http://www.w3.org/2000/svg" width="48" height="48" viewBox="0 0 48 48"><defs><style>.a{fill:#fff;stroke-width:2px;}.a,.c{stroke:#3e3e3e;}.b{fill:rgba(253,73,198,0.35);opacity:0;}.c,.e{fill:none;}.c{stroke-linecap:round;stroke-linejoin:round;stroke-width:1.667px;}.d{stroke:none;}</style></defs><g transform="translate(0 -0.232)"><g class="a" transform="translate(0 0.232)"><rect class="d" width="48" height="48" rx="24"/><rect class="e" x="1" y="1" width="46" height="46" rx="23"/></g><g transform="translate(14 14)"><rect class="b" width="20" height="20" transform="translate(0 0.232)"/><g transform="translate(1.564 1.667)"><path class="c" d="M13.333,6.667a5,5,0,0,1,5,5V17.5H15V11.667a1.667,1.667,0,1,0-3.333,0V17.5H8.333V11.667A5,5,0,0,1,13.333,6.667Z" transform="translate(-1.667 -1.667)"/><rect class="c" width="3.333" height="10" transform="translate(0 5.833)"/><circle class="c" cx="1.667" cy="1.667" r="1.667"/></g></g></g></svg>